<svg xmlns="http://www.w3.org/2000/svg" xmlns:xlink="http://www.w3.org/1999/xlink" viewBox="0 0 597 606" version="1.1" width="500px" height="508px">
    <!-- Generator: Sketch 52.6 (67491) - http://www.bohemiancoding.com/sketch -->
    <title>huawei</title>
    <desc>Created with Sketch.</desc>
    <g id="huawei" stroke="none" stroke-width="1" fill="none" fill-rule="evenodd" fill-color-id="-1" stroke-color-id="-1" recolor-fill="true" recolor-stroke="true">
        <g fill-rule="nonzero" fill-color-id="-1" stroke-color-id="-1" recolor-fill="true" recolor-stroke="true">
            <path d="M183.62934,505.66342 L183.62934,562.26342 C183.62934,578.36342 175.62934,586.86342 161.12934,586.86342 C146.52934,586.86342 138.52934,578.06342 138.52934,561.56342 L138.52934,505.76342 L118.52934,505.76342 L118.52934,562.26342 C118.52934,590.06342 133.92934,605.96342 160.92934,605.96342 C188.12934,605.96342 203.72934,589.76342 203.72934,561.36342 L203.72934,505.56342 L183.62934,505.66342 Z M257.32934,505.66342 L213.82934,604.46342 L234.32934,604.46342 L242.72934,585.36342 L243.32934,583.96342 L288.52934,583.96342 L297.42934,604.56342 L318.42934,604.56342 L275.32934,506.36342 L274.92934,505.76342 L257.32934,505.66342 Z M376.52934,505.66342 L354.12934,573.66342 L332.32934,505.76342 L310.92934,505.76342 L345.32934,604.56342 L361.92934,604.56342 L384.42934,539.66342 L406.92934,604.56342 L423.62934,604.56342 L457.92934,505.76342 L437.12934,505.76342 L415.22934,573.66342 L392.82934,505.66342 L376.52934,505.66342 Z M572.72934,505.66342 L572.72934,604.36342 L592.52934,604.36342 L592.52934,505.66342 L572.72934,505.66342 Z M5.32934,505.66342 L5.32934,604.46342 L25.32934,604.46342 L25.32934,564.36342 L70.62934,564.36342 L70.62934,604.46342 L90.72934,604.46342 L90.72934,505.66342 L70.62934,505.66342 L70.62934,545.56342 L25.32934,545.56342 L25.32934,505.66342 L5.32934,505.66342 Z M474.12934,505.76342 L474.12934,604.46342 L548.72934,604.46342 L548.72934,586.46342 L493.92934,586.46342 L493.92934,561.96342 L530.42934,561.96342 L530.42934,543.96342 L493.92934,543.96342 L493.92934,523.76342 L546.92934,523.76342 L546.92934,505.76342 L474.12934,505.76342 Z M265.82934,530.66342 L280.12934,563.76342 L280.02934,563.76342 L281.02934,566.06342 L250.72934,566.06342 L251.72934,563.76342 L265.82934,530.66342 Z" id="path4250" fill="#232527FF" fill-color-id="0" stroke-color-id="-1" recolor-fill="true" recolor-stroke="true"/>
            <path d="M255.02934,0.66342 C247.02934,1.36342 225.62934,6.26342 225.62934,6.26342 C177.22934,18.76342 165.72934,62.76342 165.72934,62.76342 C163.32934,70.16342 162.32934,77.76342 161.92934,84.86342 L161.92934,94.56342 C162.52934,109.56342 165.92934,120.76342 165.92934,120.76342 C182.12934,192.56342 261.62934,310.46342 278.72934,335.16342 C279.92934,336.36342 280.92934,335.96342 280.92934,335.96342 C282.72934,335.46342 282.62934,333.66342 282.62934,333.66342 C309.02934,70.46342 255.02934,0.66342 255.02934,0.66342 Z M342.02934,0.66342 C342.02934,0.66342 287.82934,70.46342 314.12934,333.86342 C314.32934,335.56342 315.52934,335.86342 315.52934,335.86342 C317.32934,336.56342 318.22934,334.86342 318.22934,334.86342 C335.72934,309.46342 414.82934,192.26342 430.92934,120.76342 C430.92934,120.76342 439.62934,86.16342 431.22934,62.76342 C431.22934,62.76342 419.22934,18.16342 370.72934,6.36342 C370.82934,6.36342 356.92934,2.76342 342.02934,0.66342 Z M92.02934,79.76342 C92.02934,79.76342 45.82934,123.56342 43.62934,169.96342 L43.62934,176.96342 C43.62934,177.46342 43.72934,178.06342 43.72934,178.56342 C45.72934,215.96342 73.92934,238.16342 73.92934,238.16342 C119.22934,282.46342 229.12934,338.26342 254.62934,350.96342 C255.02934,351.06342 256.32934,351.56342 257.12934,350.56342 C257.12934,350.56342 257.52934,350.26342 257.72934,349.66342 L257.72934,348.46342 C257.72934,348.36342 257.62934,348.36342 257.62934,348.26342 C187.72934,195.56342 92.02934,79.66342 92.02934,79.76342 Z M504.92934,79.76342 C504.92934,79.76342 409.52934,195.26342 339.62934,347.76342 C339.62934,347.76342 338.82934,349.56342 340.12934,350.66342 C340.12934,350.66342 340.52934,350.96342 341.02934,351.06342 L342.02934,351.06342 C342.22934,350.96342 342.42934,350.96342 342.52934,350.86342 C368.72934,337.86342 477.82934,282.36342 523.02934,238.36342 C523.02934,238.36342 551.62934,215.36342 553.12934,178.46342 C556.52934,127.16342 504.92934,79.66342 504.92934,79.76342 Z M590.82934,231.36342 C590.82934,231.36342 435.32934,314.86342 354.92934,369.06342 C354.92934,369.06342 353.42934,370.06342 354.02934,371.76342 C354.02934,371.76342 354.82934,373.16342 355.92934,373.16342 C384.72934,373.26342 493.72934,373.36342 496.42934,372.86342 C496.42934,372.86342 510.52934,372.26342 527.92934,365.56342 C527.92934,365.56342 566.72934,353.26342 586.82934,309.26342 C586.82934,309.26342 596.02934,290.86342 596.12934,264.96342 L596.12934,263.86342 C596.02934,253.96342 594.62934,242.86342 590.82934,231.36342 Z M6.12934,231.76342 C-8.07066,275.56342 11.02934,310.86342 11.02934,310.96342 C30.92934,352.86342 68.72934,365.66342 68.72934,365.66342 C86.22934,372.86342 103.72934,373.36342 103.72934,373.36342 C106.42934,373.86342 212.52934,373.46342 240.92934,373.26342 C242.12934,373.26342 242.82934,372.06342 242.82934,372.06342 C242.92934,371.96342 243.02934,371.76342 243.02934,371.66342 L243.02934,370.56342 C242.82934,369.86342 242.12934,369.26342 242.12934,369.26342 C161.82934,315.06342 6.12934,231.76342 6.12934,231.76342 Z M237.72934,386.66342 L54.72934,393.06342 C74.52934,428.46342 108.02934,455.96342 142.82934,447.46342 C166.82934,441.46342 221.22934,403.46342 239.22934,390.66342 L239.12934,390.56342 C240.52934,389.26342 240.02934,388.26342 240.02934,388.26342 C239.62934,386.76342 237.72934,386.76342 237.72934,386.66342 Z M358.92934,386.76342 C358.92934,386.86342 357.32934,387.06342 356.82934,388.26342 C356.82934,388.26342 356.42934,389.86342 357.52934,390.76342 C375.02934,403.36342 428.12934,440.46342 453.72934,447.66342 C453.72934,447.66342 457.62934,448.96342 464.12934,449.26342 L468.02934,449.26342 C485.12934,448.66342 515.02934,439.86342 542.12934,393.26342 L358.92934,386.76342 Z" id="path4252" fill="#ED1C24FF" fill-color-id="1" stroke-color-id="-1" recolor-fill="true" recolor-stroke="true"/>
        </g>
    </g>
</svg>