<svg xmlns="http://www.w3.org/2000/svg" xmlns:xlink="http://www.w3.org/1999/xlink" viewBox="0 0 351 61" version="1.1" width="250px" height="44px">
    <!-- Generator: Sketch 52.6 (67491) - http://www.bohemiancoding.com/sketch -->
    <title>sony</title>
    <desc>Created with Sketch.</desc>
    <g id="sony" stroke="none" stroke-width="1" fill="none" fill-rule="evenodd" fill-color-id="-1" stroke-color-id="-1" recolor-fill="true" recolor-stroke="true">
        <g fill="#0112FEFF" fill-rule="nonzero" id="Shape" fill-color-id="0" stroke-color-id="-1" recolor-fill="true" recolor-stroke="true">
            <path d="M345.558718,49.0009683 C343.585271,48.9637161 341.745707,50.0036019 340.74816,51.7203252 C339.750613,53.4370486 339.750613,55.5629514 340.74816,57.2796748 C341.745707,58.9963981 343.585271,60.0362839 345.558718,59.9990317 C347.006006,59.9975053 348.393189,59.4154699 349.414061,58.3814036 C350.434933,57.3473374 351.005552,55.9462672 350.999959,54.4874649 C351.000467,53.0325329 350.427419,51.6370161 349.406933,50.6080429 C348.386447,49.5790697 347.002156,49.0009683 345.558718,49.0009683 Z M345.558718,59.3375665 C344.28331,59.3391164 343.059894,58.8281897 342.159302,57.9178928 C341.258709,57.007596 340.755231,55.7730185 340.760323,54.4874649 C340.760828,53.2061139 341.266962,51.9775874 342.167111,51.0728025 C343.067261,50.1680175 344.287493,49.6612891 345.558718,49.664362 C346.827603,49.6643619 348.044491,50.1725703 348.941549,51.077133 C349.838607,51.9816958 350.342314,53.2084759 350.341806,54.4874649 C350.347911,55.7706572 349.846859,57.0034877 348.949359,57.913562 C348.051859,58.8236362 346.831787,59.3360433 345.558718,59.3375665 Z" fill-color-id="0" stroke-color-id="-1" recolor-fill="true" recolor-stroke="true" fill="#0112FEFF"/>
            <path d="M348.16268,53.1828909 C348.16268,52.6799485 347.939577,52.1508306 347.493371,51.8984246 C347.043415,51.6329308 346.540965,51.6067553 346.036639,51.6067553 L343.43252,51.6067553 L343.43252,57.565408 L344.161823,57.565408 L344.161823,54.8169865 L345.506066,54.8169865 L347.212149,57.565408 L348.080189,57.565408 L346.274741,54.8169865 C347.339636,54.7870717 348.16268,54.3551769 348.16268,53.1828909 Z M345.281088,54.2429964 L344.159949,54.2429964 L344.159949,52.1358732 L345.866031,52.1358732 C346.608458,52.1358732 347.422128,52.2480537 347.422128,53.1698032 C347.424003,54.383222 346.119131,54.2429964 345.281088,54.2429964 Z M314.082278,24.3749464 L325.012454,12.7362226 C325.646142,11.8817814 325.961111,11.2834856 325.961111,10.7711948 C325.961111,9.91675351 325.224308,9.57460308 322.907036,9.57460308 L320.149182,9.57460308 L320.149182,2.22678232 L350,2.22678232 L350,9.57460308 L346.077885,9.57460308 C341.54833,9.57460308 340.706538,10.2570343 334.386533,18.2031509 L317.095107,36.8251088 L317.095107,48.1889904 C317.095107,51.0963342 318.566837,52.1190462 322.781423,52.1190462 L329.309532,52.1190462 L329.309532,59.2088518 L287.499263,59.2088518 L287.499263,52.1190462 L294.027372,52.1190462 C298.238209,52.1190462 299.713689,51.0963342 299.713689,48.1889904 L299.713689,36.8251088 L279.347564,14.3572304 C275.98227,10.4290443 276.447224,9.57460308 267.076894,9.57460308 L267.076894,2.22678232 L304.888181,2.22678232 L304.888181,9.57460308 L302.195945,9.57460308 C299.456839,9.57460308 298.296328,10.0868939 298.296328,11.1114755 C298.296328,11.9677864 299.13812,12.6502176 299.664944,13.3326488 L309.968932,24.531999 C311.193186,25.801508 312.687415,25.9660394 314.082278,24.3749464 Z M60.3878191,2.22491265 L69.5087982,2.22491265 L69.5087982,22.7277631 L61.0852506,22.7277631 C60.3390738,18.6294366 57.7668265,17.0346043 55.4214318,14.8844786 C51.1899724,11.0067737 42.0258725,7.77784589 34.3185044,7.77784589 C24.3707314,7.77784589 15.975306,10.8553301 15.975306,15.3799424 C15.975306,27.9404156 72.8665935,17.9451358 72.8665935,41.6937412 C72.8665935,54.0803347 60.6802903,61 38.7955647,61 C31.2194338,61 19.7549348,58.6554282 12.9905991,55.0731319 C10.8701824,53.8522344 9.97027078,56.2285907 9.57280981,59.2069822 L0.221228272,59.2069822 L0.221228272,38.0198308 L8.68039746,38.0198308 C10.5458392,43.4026237 13.1162118,44.5113406 15.4803546,46.6483786 C19.5824517,50.408294 29.3464928,53.1436278 38.3006133,53.0557531 C51.8011624,52.9230062 56.4432065,49.9801385 56.4432065,45.7079323 C56.4432065,41.4375958 51.8517824,40.4111445 37.0576104,38.1058358 L24.4963441,36.0548029 C10.3208613,33.917765 0,30.7580151 0,19.4820082 C0,7.77784589 13.0562177,0.430025133 33.6998152,0.430025133 C42.3989608,0.430025133 49.676996,1.58922332 56.6625599,5.5267578 C58.5973699,6.78130939 60.4121917,6.93088334 60.3878191,2.22491265 Z M238.390337,36.5521363 L238.570319,13.7645436 C238.570319,10.7749341 237.010472,9.75035248 232.554035,9.75035248 L227.317674,9.75035248 L227.317674,2.6605468 L260.633152,2.6605468 L260.633152,9.75035248 L256.291079,9.75035248 C251.830892,9.75035248 250.271045,10.7768038 250.271045,13.7645436 L250.271045,59.6407466 L237.2317,59.5379145 L195.003348,19.6596273 L195.003348,48.6208852 C195.003348,51.5263593 196.563195,52.6350763 201.019632,52.6350763 L206.816563,52.6350763 L206.816563,59.6407466 L172.216836,59.6407466 L172.216836,52.6350763 L177.950023,52.6350763 C182.40646,52.6350763 183.966307,51.5244897 183.966307,48.6208852 L183.966307,13.7645436 C183.966307,10.7749341 182.40646,9.75035248 177.950023,9.75035248 L172.216836,9.75035248 L172.216836,2.6605468 L202.131398,2.6605468 L238.390337,36.5521363 Z M126.795672,0 C100.24453,0 83.6242869,11.706032 83.6242869,30.4981303 C83.6242869,48.9536872 100.013927,60.5699749 125.985751,60.5699749 C153.571792,60.5699749 169.618341,49.1238276 169.618341,29.5595537 C169.620216,11.9621774 152.304417,0 126.795672,0 Z M126.191981,53.1398884 C111.4953,53.1398884 103.047379,44.681481 103.047379,30.0718445 C103.047379,15.8062282 111.862763,7.34782076 126.926909,7.34782076 C141.37799,7.34782076 149.82591,15.9782382 149.82591,30.6720101 C149.82591,45.0236315 141.254252,53.1398884 126.191981,53.1398884 Z" fill-color-id="0" stroke-color-id="-1" recolor-fill="true" recolor-stroke="true" fill="#0112FEFF"/>
        </g>
    </g>
</svg>