<svg xmlns="http://www.w3.org/2000/svg" xmlns:xlink="http://www.w3.org/1999/xlink" viewBox="0 0 176 43" version="1.1" width="100px" height="25px">
    <!-- Generator: Sketch 52.6 (67491) - http://www.bohemiancoding.com/sketch -->
    <title>adobe</title>
    <desc>Created with Sketch.</desc>
    <g id="adobe" stroke="none" stroke-width="1" fill="none" fill-rule="evenodd" fill-color-id="-1" stroke-color-id="-1" recolor-fill="true" recolor-stroke="true">
        <g id="Shape" fill-color-id="-1" stroke-color-id="-1" recolor-fill="true" recolor-stroke="true">
            <path d="M68.445,30.738 L66.045,41.896 L60.525,41.896 L69.645,1.458 L76.184,1.458 L84.764,41.896 L79.184,41.896 L76.844,30.738 L68.445,30.738 Z M76.184,26.238 L74.324,16.577 C73.784,13.817 73.244,10.219 72.825,7.338 L72.584,7.338 C72.165,10.278 71.563,13.997 71.025,16.577 L69.105,26.238 L76.184,26.238 Z M105.834,0.379 L105.834,34.397 C105.834,36.618 105.954,39.858 106.073,41.897 L101.214,41.897 L100.854,38.358 L100.674,38.358 C99.714,40.397 97.494,42.378 94.555,42.378 C89.155,42.378 85.855,36.497 85.855,27.439 C85.855,17.119 90.234,12.259 94.855,12.259 C97.194,12.259 99.054,13.34 100.074,15.559 L100.194,15.559 L100.194,0.379 L105.834,0.379 Z M100.193,23.838 C100.193,23.299 100.193,22.639 100.133,22.037 C99.833,19.398 98.333,17.118 96.294,17.118 C92.753,17.118 91.554,22.037 91.554,27.438 C91.554,33.438 93.114,37.637 96.114,37.637 C97.374,37.637 99.053,36.977 100.013,33.498 C100.133,33.018 100.193,32.297 100.193,31.639 L100.193,23.838 Z M119.268,42.377 C113.449,42.377 109.248,37.397 109.248,27.379 C109.248,16.758 114.227,12.258 119.567,12.258 C125.327,12.258 129.466,17.418 129.466,27.258 C129.466,38.838 123.766,42.377 119.327,42.377 L119.268,42.377 Z M119.447,37.938 C122.926,37.938 123.707,31.758 123.707,27.319 C123.707,22.938 122.927,16.699 119.328,16.699 C115.607,16.699 114.888,22.938 114.888,27.319 C114.888,32.178 115.728,37.938 119.388,37.938 L119.447,37.938 Z M132.866,0.379 L138.505,0.379 L138.505,16.038 L138.625,16.038 C140.125,13.399 142.165,12.258 144.745,12.258 C149.724,12.258 152.845,17.898 152.845,26.838 C152.845,37.277 148.585,42.377 143.785,42.377 C140.905,42.377 139.285,40.816 138.024,38.236 L137.786,38.236 L137.485,41.896 L132.626,41.896 C132.746,39.917 132.866,36.617 132.866,34.396 L132.866,0.379 Z M138.505,31.576 C138.505,32.238 138.565,32.898 138.745,33.377 C139.644,36.918 141.385,37.637 142.524,37.637 C145.884,37.637 147.144,33.198 147.144,27.198 C147.144,21.618 145.825,17.118 142.464,17.118 C140.604,17.118 139.104,19.338 138.684,21.438 C138.564,22.038 138.504,22.819 138.504,23.418 L138.504,31.576 L138.505,31.576 Z M161.167,28.457 C161.227,35.957 164.466,37.816 167.886,37.816 C169.926,37.816 171.666,37.337 172.926,36.736 L173.766,40.816 C172.026,41.716 169.386,42.197 166.806,42.197 C159.487,42.197 155.647,36.677 155.647,27.677 C155.647,18.137 160.026,12.257 166.086,12.257 C172.146,12.257 174.966,18.077 174.966,25.398 C174.966,26.837 174.905,27.738 174.846,28.517 L161.167,28.457 Z M169.626,24.438 C169.686,19.278 167.886,16.519 165.667,16.519 C162.726,16.519 161.406,20.779 161.227,24.438 L169.626,24.438 Z" fill="#000000" fill-rule="nonzero" fill-color-id="0" stroke-color-id="-1" recolor-fill="true" recolor-stroke="true"/>
            <path d="M28.741,1.566 L45.588,1.566 L45.588,41.896 L28.741,1.566 Z M16.873,1.566 L0.014,1.566 L0.014,41.896 L16.873,1.566 Z M22.808,16.429 L33.542,41.896 L26.508,41.896 L23.298,33.785 L15.441,33.785 L22.808,16.429 Z" fill="#FF0000FF" fill-color-id="1" stroke-color-id="-1" recolor-fill="true" recolor-stroke="true"/>
            <path d="M174.487,12.183 C174.828402,12.1845702 175.155029,12.3224626 175.39427,12.5660226 C175.633511,12.8095826 175.765538,13.1386247 175.761,13.48 C175.761,14.212 175.196,14.783 174.481,14.783 C173.772,14.783 173.195,14.213 173.195,13.48 C173.193139,13.1373516 173.327678,12.8080411 173.568937,12.5647189 C173.810196,12.3213967 174.138348,12.1840574 174.481,12.183 L174.487,12.183 Z M174.481,12.384 C173.911,12.384 173.443,12.875 173.443,13.48 C173.443,14.097 173.911,14.581 174.487,14.581 C175.063,14.587 175.524,14.097 175.524,13.486 C175.524,12.875 175.063,12.384 174.487,12.384 L174.481,12.384 Z M174.239,14.236 L174.009,14.236 L174.009,12.788 C174.13,12.771 174.246,12.753 174.419,12.753 C174.638,12.753 174.781,12.8 174.868,12.863 C174.955,12.926 175.001,13.024 175.001,13.163 C175.001,13.353 174.874,13.469 174.718,13.515 L174.718,13.526 C174.845,13.549 174.932,13.665 174.96,13.878 C174.995,14.103 175.029,14.189 175.053,14.236 L174.811,14.236 C174.776,14.189 174.742,14.057 174.713,13.867 C174.678,13.682 174.586,13.613 174.401,13.613 L174.24,13.613 L174.24,14.236 L174.239,14.236 Z M174.239,13.434 L174.406,13.434 C174.596,13.434 174.759,13.365 174.759,13.186 C174.759,13.059 174.666,12.932 174.406,12.932 C174.332,12.932 174.279,12.938 174.239,12.944 L174.239,13.434 Z M47.809,1.566 C48.1504018,1.56757018 48.4770293,1.70546263 48.7162702,1.94902261 C48.955511,2.19258259 49.0875379,2.52162474 49.083,2.863 C49.083,3.595 48.518,4.166 47.803,4.166 C47.094,4.166 46.517,3.596 46.517,2.863 C46.515139,2.5203516 46.6496784,2.19104112 46.890937,1.94771892 C47.1321955,1.70439671 47.4603482,1.56705744 47.803,1.566 L47.809,1.566 Z M47.803,1.767 C47.232,1.767 46.765,2.258 46.765,2.863 C46.765,3.48 47.232,3.964 47.809,3.964 C48.385,3.97 48.847,3.48 48.847,2.869 C48.847,2.258 48.385,1.767 47.809,1.767 L47.803,1.767 Z M47.561,3.619 L47.33,3.619 L47.33,2.171 C47.4655116,2.14851108 47.6026351,2.13713986 47.74,2.137 C47.959,2.137 48.103,2.182 48.189,2.246 C48.276,2.309 48.322,2.408 48.322,2.546 C48.322,2.736 48.195,2.852 48.039,2.898 L48.039,2.909 C48.166,2.932 48.253,3.048 48.282,3.262 C48.316,3.487 48.351,3.573 48.374,3.62 L48.132,3.62 C48.097,3.573 48.062,3.441 48.034,3.251 C47.999,3.066 47.907,2.997 47.722,2.997 L47.561,2.997 L47.561,3.619 Z M47.561,2.817 L47.728,2.817 C47.918,2.817 48.08,2.748 48.08,2.569 C48.08,2.442 47.988,2.315 47.728,2.315 C47.653,2.315 47.601,2.321 47.561,2.327 L47.561,2.817 Z" fill="#000000" fill-rule="nonzero" fill-color-id="0" stroke-color-id="-1" recolor-fill="true" recolor-stroke="true"/>
        </g>
    </g>
</svg>